HIERARCHY
ROOT Hips
{
	OFFSET -3.958830 18.904000 13.208200
	CHANNELS 6 Xposition Yposition Zposition Zrotation Yrotation Xrotation 
	JOINT LHipJoint
	{
		OFFSET 0.000000 0.000000 0.000000
		CHANNELS 3 Zrotation Yrotation Xrotation
		JOINT LeftUpLeg
		{
			OFFSET 1.800000 -1.400000 0.085000
			CHANNELS 3 Zrotation Yrotation Xrotation
			JOINT LeftLeg
			{
				OFFSET 2.215000 -6.000000 0.000000
				CHANNELS 3 Zrotation Yrotation Xrotation
				JOINT LeftFoot
				{
					OFFSET 2.500000 -6.900000 0.000000
					CHANNELS 3 Zrotation Yrotation Xrotation
					JOINT LeftToeBase
					{
						OFFSET 0.200000 -0.500000 1.950000
						CHANNELS 3 Zrotation Yrotation Xrotation
						End Site
						{
							OFFSET 0.000000 0.000000 0.000000
						}
					}
				}
			}
		}
	}
	JOINT RHipJoint
	{
		OFFSET 0.000000 0.000000 0.000000
		CHANNELS 3 Zrotation Yrotation Xrotation
		JOINT RightUpLeg
		{
			OFFSET -1.800000 -1.400000 0.085000
			CHANNELS 3 Zrotation Yrotation Xrotation
			JOINT RightLeg
			{
				OFFSET -2.215000 -6.000000 0.000000
				CHANNELS 3 Zrotation Yrotation Xrotation
				JOINT RightFoot
				{
					OFFSET -2.500000 -6.900000 0.000000
					CHANNELS 3 Zrotation Yrotation Xrotation
					JOINT RightToeBase
					{
						OFFSET -0.200000 -0.500000 1.950000
						CHANNELS 3 Zrotation Yrotation Xrotation
						End Site
						{
							OFFSET 0.000000 0.000000 0.000000
						}
					}
				}
			}
		}
	}
	JOINT LowerBack
	{
		OFFSET 0.000000 0.000000 0.000000
		CHANNELS 3 Zrotation Yrotation Xrotation
		JOINT Spine
		{
			OFFSET -0.087000 1.940000 -0.288900
			CHANNELS 3 Zrotation Yrotation Xrotation
			JOINT Spine1
			{
				OFFSET 0.000000 1.950000 0.060000
				CHANNELS 3 Zrotation Yrotation Xrotation
				JOINT Neck
				{
					OFFSET 0.000000 0.000000 0.000000
					CHANNELS 3 Zrotation Yrotation Xrotation
					JOINT Neck1
					{
						OFFSET 0.000000 1.600000 0.340000
						CHANNELS 3 Zrotation Yrotation Xrotation
						JOINT Head
						{
							OFFSET 0.000000 1.667000 -0.240000
							CHANNELS 3 Zrotation Yrotation Xrotation
							End Site
							{
								OFFSET 0.000000 0.000000 0.000000
							}
						}
					}
				}
				JOINT LeftShoulder
				{
					OFFSET 0.000000 0.000000 0.000000
					CHANNELS 3 Zrotation Yrotation Xrotation
					JOINT LeftArm
					{
						OFFSET 2.700000 1.550000 -0.730000
						CHANNELS 3 Zrotation Yrotation Xrotation
						JOINT LeftForeArm
						{
							OFFSET 5.450000 0.000000 0.000000
							CHANNELS 3 Zrotation Yrotation Xrotation
							JOINT LeftHand
							{
								OFFSET 3.450000 0.000000 0.000000
								CHANNELS 3 Zrotation Yrotation Xrotation
								JOINT LeftHandIndex1
								{
									OFFSET 0.750000 0.000000 0.000000
									CHANNELS 3 Zrotation Yrotation Xrotation
									End Site
									{
										OFFSET 0.000000 0.000000 0.000000
									}
								}
							}
						}
					}
				}
				JOINT RightShoulder
				{
					OFFSET 0.000000 0.000000 0.000000
					CHANNELS 3 Zrotation Yrotation Xrotation
					JOINT RightArm
					{
						OFFSET -2.700000 1.550000 -0.730000
						CHANNELS 3 Zrotation Yrotation Xrotation
						JOINT RightForeArm
						{
							OFFSET -5.450000 0.000000 0.000000
							CHANNELS 3 Zrotation Yrotation Xrotation
							JOINT RightHand
							{
								OFFSET -3.450000 0.000000 0.000000
								CHANNELS 3 Zrotation Yrotation Xrotation
								JOINT RightHandIndex1
								{
									OFFSET -0.750000 0.000000 0.000000
									CHANNELS 3 Zrotation Yrotation Xrotation
									End Site
									{
										OFFSET 0.000000 0.000000 0.000000
									}
								}
							}
						}
					}
				}
			}
		}
	}
}
MOTION
Frames: 14
Frame Time: 0.016667
-0.777060 13.640000 -3.235040 -55.137324 -0.414063 -22.736267 -15.338443 9.578029 4.568190 3.361884 -15.464730 -31.244763 -15.983155 28.262492 72.883794 2.321582 15.745629 -0.582219 0.258760 0.214370 0.297190 18.714317 -6.715008 5.858453 -25.893363 8.099137 -45.582370 42.874281 -56.186212 74.095431 -3.772974 -16.513938 -0.663181 0.054210 -0.020910 0.001120 -4.002336 -2.067976 -10.091589 9.004387 -11.386284 64.823134 -15.728396 -4.208240 19.112769 7.304521 -0.286027 -16.755314 -4.857730 8.455403 40.612088 7.406560 7.891430 -17.896380 -6.601861 -20.209378 7.702047 -24.604485 -7.527518 0.150141 8.313691 -1.257357 -0.612277 -3.584349 2.737148 0.703190 -0.237990 0.273540 -0.004630 -7.907816 15.216739 13.283334 18.950707 -20.278859 -7.626786 -12.740794 0.032398 0.458401 2.925636 -0.717794 -0.218200 0.260370 0.014050 -0.141580 
-0.753390 13.583990 -3.124060 -52.935645 0.873410 -26.382787 -15.394926 9.522932 4.679068 0.527560 -16.637377 -30.439003 -18.119274 29.677480 72.211248 2.400101 16.038777 -0.636711 0.192240 0.132680 0.248590 18.685231 -6.641066 5.851713 -28.865263 5.516219 -45.242634 59.685728 -59.018614 60.600882 -3.353525 -14.477284 -0.196310 0.034620 0.029770 -0.013030 -3.857112 -2.286761 -10.133891 5.774806 -10.553391 65.865286 -15.484628 -4.913962 19.429272 7.498690 -0.491717 -16.918915 -5.035187 8.848400 40.264426 7.830750 7.754590 -16.597090 -6.184035 -19.761531 7.814306 -25.145045 -6.865806 0.348101 6.816272 -1.015722 -0.593712 -3.623424 2.687914 0.702630 -0.208370 0.223570 -0.038020 -8.654464 14.826690 13.576643 12.977541 -21.642646 -7.048704 -16.199346 0.855323 0.428960 2.940497 -0.778342 -0.264030 0.288860 0.084160 -0.153470 
-0.773610 13.551960 -3.030320 -49.807925 1.721636 -29.450586 -15.564926 9.961692 4.743400 -3.473305 -17.038603 -28.626465 -18.988771 28.691935 68.866594 2.161347 15.629056 -0.525998 0.083470 -0.033380 0.156150 18.511742 -6.709275 5.477259 -30.321413 2.247889 -44.177929 84.263569 -55.298371 39.575942 -2.839953 -12.230111 0.343684 0.026780 0.197750 -0.012460 -3.355948 -3.158380 -9.987486 -0.189237 -6.620715 66.791968 -12.699645 -4.175935 19.552224 7.452241 -1.616799 -16.441907 -6.426215 8.531837 36.667192 9.616980 5.845370 -16.216280 -4.718212 -18.324658 7.318422 -27.742431 -8.268408 1.172743 6.827849 -0.032099 -0.702847 -3.759605 2.599436 0.730430 -0.137190 0.120180 -0.066060 -9.990171 14.922555 13.803740 6.815164 -23.018228 -6.592151 -18.857512 0.453486 0.400918 2.937140 -0.767819 -0.391620 0.411800 0.233380 -0.163210 
-0.748200 13.440840 -2.909460 -47.571824 1.482733 -31.179460 -15.593016 9.880705 4.841229 -7.292487 -17.907077 -29.788926 -17.358999 25.623768 65.936770 1.846815 14.647329 -0.266334 0.025120 -0.102390 0.120090 18.524435 -6.666774 5.470455 -32.089852 0.310829 -42.123559 100.138337 -44.644413 24.185727 -2.655144 -11.227801 0.642354 0.012680 0.270310 -0.047760 -3.336911 -3.075226 -10.035356 -1.782361 -5.846387 65.783784 -12.920615 -3.920217 18.587887 7.427209 -2.104876 -16.211774 -7.256893 8.733907 36.905454 10.855820 5.310860 -16.736130 -4.696993 -17.343488 6.992565 -29.373357 -8.886081 1.700320 5.645314 0.826165 -0.680965 -3.800554 2.474008 0.774850 -0.121060 0.095280 -0.074600 -9.927248 14.904358 13.655152 -1.547826 -23.372043 -6.066644 -22.692861 0.372733 0.304686 2.999367 -0.821951 -0.467490 0.509860 0.286090 -0.169370 
-0.746990 13.348490 -2.815960 -44.782769 0.870932 -32.679582 -15.709937 9.758532 4.877647 -11.637164 -18.362089 -32.107093 -12.011964 19.323706 60.654770 1.267365 12.405903 0.338784 0.024800 -0.086250 0.101110 18.486262 -6.183953 5.841845 -34.808078 0.184066 -38.892031 106.880901 -34.045068 16.132318 -2.497688 -10.485379 0.841505 0.033330 0.316280 -0.035860 -3.111577 -3.456562 -10.145541 -4.674138 -3.306501 65.058202 -12.482525 -2.789607 17.848963 8.339560 -2.646843 -15.541200 -7.604309 8.407085 35.098846 10.016730 4.880680 -15.905990 -4.296894 -15.857175 6.471034 -31.331562 -9.878178 2.126004 5.875735 1.688962 -0.607073 -3.853527 2.498753 0.717390 -0.081780 0.070900 -0.055260 -12.234290 14.920043 12.796277 -6.180368 -22.549774 -7.143887 -27.281993 0.839982 -0.137440 3.137463 -1.044195 -0.459780 0.523570 0.285680 -0.137760 
-0.728280 13.247870 -2.700320 -42.344092 -0.514204 -33.554394 -15.694864 9.469828 4.831295 -17.025052 -17.262896 -33.249084 -1.482236 8.609770 46.263463 0.142799 7.516899 1.827057 0.092010 0.015620 0.089530 18.566204 -5.839231 6.465061 -37.522321 0.431527 -34.653317 112.149534 -22.880402 9.304846 -2.284289 -9.350410 1.154217 0.082980 0.313570 -0.028570 -3.250170 -3.211731 -10.218811 -4.970397 -2.667136 63.484539 -13.949916 -2.263297 16.796958 8.805664 -3.715730 -15.108893 -9.373855 9.201445 34.462356 11.020020 4.384530 -15.353520 -4.700638 -15.001137 6.424344 -31.936910 -9.600413 2.215136 5.162796 2.028741 -0.556419 -3.816645 2.574559 0.672860 -0.094330 0.083020 -0.000980 -12.728667 15.719464 11.406899 -13.346931 -21.320903 -7.992508 -31.956826 1.942073 -0.887813 3.265003 -1.291799 -0.411230 0.509220 0.236130 -0.089470 
-0.702060 13.179450 -2.602420 -39.329605 -4.750952 -35.161963 -15.587304 9.379306 4.554719 -19.729011 -14.232658 -34.853387 8.585117 2.825525 31.861728 -0.527545 4.101944 2.984682 0.134150 0.057780 0.115310 18.657380 -5.825532 7.004648 -39.014946 3.657230 -31.976799 112.128306 -14.501738 6.445186 -2.122297 -8.455841 1.382931 0.087920 0.250490 -0.020200 -3.591540 -2.388576 -10.169643 -4.219089 -1.010716 63.021760 -15.691018 -0.194791 15.060537 8.921229 -4.414812 -14.790962 -10.737835 9.328031 35.560538 11.939000 4.024560 -17.305230 -4.219593 -14.922538 6.816438 -33.120947 -9.389398 2.179380 4.016010 1.730806 -0.583448 -3.736945 2.589300 0.728260 -0.156310 0.140690 0.002510 -13.497580 17.544891 9.803866 -19.023768 -21.274688 -9.673274 -37.581836 5.465942 -2.024386 3.374942 -1.453527 -0.386420 0.488990 0.212620 -0.093670 
-0.686650 13.097090 -2.480040 -36.975854 -9.069542 -37.437011 -15.593991 9.604367 4.233624 -17.503907 -12.238294 -39.146795 11.319826 2.146219 27.457216 -0.620441 3.333124 3.254508 0.164290 0.137600 0.065050 18.615697 -5.708681 7.326329 -40.917772 6.698070 -28.989941 113.978654 -10.040341 4.613899 -1.969417 -7.926946 1.563266 0.132740 0.291230 -0.029970 -3.599699 -2.385990 -10.055685 -4.360370 0.535351 62.407847 -16.234838 1.336522 14.354614 9.974349 -6.488536 -14.486882 -14.374275 10.424786 33.909052 11.493760 3.012120 -15.634720 -3.616529 -14.642343 7.238426 -36.328513 -8.548483 2.009491 3.115393 2.276203 -0.520232 -3.735131 2.641991 0.627190 -0.123890 0.105930 0.045080 -16.197891 20.311139 8.202929 -23.855113 -19.144016 -12.470203 -43.676119 8.398872 -3.843823 3.505823 -1.676209 -0.340480 0.502790 0.192720 -0.028270 
-0.692210 13.061770 -2.382010 -33.462820 -10.734050 -40.379178 -15.680810 9.597593 4.187425 -19.379653 -11.466182 -41.713638 17.351995 1.180791 25.785437 -0.539400 3.297028 3.270972 0.250480 0.288560 0.041300 18.569181 -5.398193 7.525995 -44.118586 8.864427 -25.490926 115.706020 -7.241102 3.651746 -1.876719 -7.564178 1.684768 0.215830 0.317800 -0.023590 -3.431014 -2.615449 -10.062870 -6.848210 3.515235 62.427495 -15.901793 2.955698 14.370780 10.820834 -7.707728 -13.881614 -16.192264 10.661483 31.846142 10.959970 2.016470 -14.813740 -2.911069 -14.446044 7.440265 -37.957501 -8.974695 2.296082 3.488007 3.423209 -0.393496 -3.728004 2.730364 0.525000 -0.100330 0.097820 0.125820 -18.895409 22.371445 6.535667 -26.407331 -18.143545 -15.216657 -49.262538 12.680789 -6.158853 3.606696 -1.937064 -0.276570 0.508360 0.127110 0.048660 
-0.684910 12.999300 -2.277040 -31.224583 -13.985832 -43.162044 -15.648637 9.754358 4.013641 -18.407088 -9.865549 -47.072905 24.931067 0.143700 28.440260 -0.224717 4.223306 2.882454 0.403610 0.520080 0.058130 18.564960 -5.545481 7.539107 -45.298499 11.571405 -23.533407 117.919041 -8.294645 4.187597 -1.931157 -7.665112 1.655419 0.296400 0.265610 0.032340 -3.536913 -2.191211 -9.939659 -5.656172 4.262250 62.583550 -17.324011 4.621946 14.276383 11.704330 -8.584413 -13.540414 -17.706023 11.248412 31.312474 10.866480 1.399470 -13.855610 -2.872464 -14.750421 7.852316 -38.262080 -9.096267 2.531815 2.412809 4.130844 -0.324491 -3.663444 2.907028 0.406780 -0.106800 0.145460 0.215500 -21.059668 24.070988 4.809930 -29.833682 -17.006080 -16.974287 -52.956487 15.560116 -7.793811 3.769109 -2.177777 -0.118480 0.410820 0.003950 0.140580 
-0.658660 12.978820 -2.152110 -27.842410 -18.462695 -48.301641 -15.597009 10.316661 3.576584 -18.054213 -6.527393 -51.340930 37.076669 -1.400545 30.440043 0.241195 6.148597 2.204922 0.500370 0.677000 0.081270 18.502651 -5.993791 7.319422 -45.522602 15.738268 -20.638929 120.928079 -14.339969 6.928720 -2.097727 -8.332482 1.490822 0.364210 0.250910 0.046050 -3.575881 -1.752413 -9.635177 -4.679278 5.824978 63.746998 -18.659730 6.972852 14.722037 13.104334 -9.534280 -13.378053 -19.428757 12.389504 31.103734 9.026590 1.496820 -12.395290 -4.309133 -15.945527 8.697955 -38.069957 -7.537178 2.024521 1.405744 3.094449 -0.347731 -3.598450 2.977333 0.310440 -0.083830 0.168260 0.294770 -23.052951 26.960395 3.126828 -34.232201 -16.490124 -18.661010 -54.500238 17.775395 -8.739850 3.955384 -2.317061 -0.038700 0.388250 -0.094860 0.200190 
-0.643220 12.936280 -1.957910 -23.964125 -22.759268 -52.627331 -15.539303 10.532116 3.312902 -17.869249 -4.012495 -55.978691 50.527206 -3.860342 34.133560 0.834897 8.911130 1.281553 0.548590 0.741500 0.072770 18.516205 -6.168557 7.299384 -46.179812 19.492344 -19.087354 123.911280 -16.986026 8.267109 -2.157468 -8.555350 1.406544 0.402280 0.247130 0.081230 -3.787447 -0.990169 -9.528948 -2.186685 6.152040 63.571748 -21.057855 8.956317 14.687076 13.944580 -10.519179 -13.236223 -21.510132 13.512606 31.394717 9.005460 0.732010 -12.637980 -5.129855 -15.847107 8.802930 -39.392676 -6.741350 1.869899 1.514413 3.914840 -0.356313 -3.606723 3.011967 0.298800 -0.085650 0.181520 0.308550 -24.560280 28.359775 1.128975 -38.124207 -13.143925 -20.207704 -55.750938 21.242426 -9.979213 3.991125 -2.347992 -0.000420 0.373570 -0.093250 0.226120 
-0.607660 12.932600 -1.763210 -19.509334 -26.523479 -57.557741 -15.492947 10.598614 3.190979 -16.926139 -1.682558 -60.006792 63.888683 -7.797060 40.041680 1.559655 11.958653 0.384860 0.583640 0.742600 0.141890 18.536921 -6.146610 7.386879 -46.389139 23.582537 -17.225434 125.664112 -16.791618 9.024142 -2.156120 -8.471897 1.401554 0.402460 0.202460 0.118970 -3.983335 -0.266708 -9.513848 0.713183 6.665408 63.193661 -23.273867 11.473059 15.201379 14.698154 -10.575921 -13.405266 -21.951603 14.881104 34.228956 7.900110 1.290780 -12.895070 -7.978010 -16.841813 9.354584 -38.260503 -5.149516 1.670012 0.744587 3.900225 -0.479694 -3.594726 2.982416 0.340990 -0.098350 0.217550 0.284490 -23.953589 30.257824 -0.522890 -43.274987 -7.362826 -21.211397 -56.671187 22.300115 -10.556621 3.848571 -2.207725 0.012000 0.349080 -0.092580 0.190780 
-0.552440 12.897210 -1.573410 -16.911598 -27.429720 -59.820007 -15.497352 10.239424 3.666490 -16.019148 -2.627740 -64.454129 77.059643 -13.395677 45.165176 2.279149 14.488799 -0.231996 0.645670 0.787710 0.168020 18.554621 -6.081187 7.103159 -47.580027 25.350358 -17.668205 128.161566 -21.486063 10.265022 -2.271623 -8.880462 1.268522 0.427200 0.163210 0.145020 -4.026603 0.093122 -9.693929 2.830737 5.892606 61.749101 -24.161243 12.454585 15.753303 15.169992 -10.709714 -13.447291 -22.481300 15.856456 36.896639 8.256940 0.746770 -12.183030 -9.427407 -17.442267 9.803616 -39.984648 -4.377320 1.617246 1.256854 5.203629 -0.394923 -3.559689 3.057356 0.354240 -0.126490 0.236710 0.306130 -23.518985 31.523487 -1.727252 -46.832161 -0.907887 -22.067029 -56.203966 23.721786 -11.022496 3.681237 -2.156851 0.040940 0.297010 -0.125180 0.191940 
